<?xml version="1.0" encoding="iso-8859-1"?>
<!-- Generator: Adobe Illustrator 19.0.0, SVG Export Plug-In . SVG Version: 6.00 Build 0)  -->
<svg version="1.1" id="Capa_1" xmlns="http://www.w3.org/2000/svg" xmlns:xlink="http://www.w3.org/1999/xlink" x="0px" y="0px"
	 viewBox="0 0 512 512" style="enable-background:new 0 0 512 512;" xml:space="preserve">
<g>
	<g>
		<path d="M93,329c-5.52,0-10,4.48-10,10c0,5.52,4.48,10,10,10s10-4.48,10-10C103,333.48,98.52,329,93,329z"/>
	</g>
</g>
<g>
	<g>
		<path d="M93,43c-27.57,0-50,22.43-50,50s22.43,50,50,50s50-22.43,50-50S120.57,43,93,43z M93,123c-16.542,0-30-13.458-30-30
			s13.458-30,30-30s30,13.458,30,30S109.542,123,93,123z"/>
	</g>
</g>
<g>
	<g>
		<path d="M419,369c-27.57,0-50,22.43-50,50s22.43,50,50,50s50-22.43,50-50S446.57,369,419,369z M419,449c-16.542,0-30-13.458-30-30
			s13.458-30,30-30s30,13.458,30,30S435.542,449,419,449z"/>
	</g>
</g>
<g>
	<g>
		<path d="M433.143,93l32.929-32.929c3.905-3.905,3.905-10.237,0-14.143c-3.906-3.905-10.236-3.905-14.143,0L419,78.857
			l-32.929-32.929c-3.906-3.905-10.236-3.905-14.143,0c-3.905,3.905-3.905,10.237,0,14.143L404.857,93l-32.929,32.929
			c-3.905,3.905-3.905,10.237,0.001,14.142C373.882,142.024,376.44,143,379,143s5.118-0.976,7.071-2.929L419,107.143l32.929,32.929
			C453.882,142.024,456.44,143,459,143s5.118-0.976,7.071-2.929c3.905-3.905,3.905-10.237,0-14.143L433.143,93z"/>
	</g>
</g>
<g>
	<g>
		<path d="M270.143,256l32.929-32.929c3.905-3.905,3.905-10.237,0-14.143c-3.906-3.905-10.236-3.905-14.143,0L256,241.857
			l-32.929-32.929c-3.906-3.905-10.236-3.905-14.143,0c-3.905,3.905-3.905,10.237,0,14.143L241.857,256l-32.929,32.929
			c-3.905,3.905-3.905,10.237,0,14.143C210.882,305.024,213.44,306,216,306s5.118-0.976,7.071-2.929L256,270.143l32.929,32.929
			C290.882,305.024,293.44,306,296,306s5.118-0.976,7.071-2.929c3.905-3.905,3.905-10.237,0-14.143L270.143,256z"/>
	</g>
</g>
<g>
	<g>
		<path d="M107.143,419l32.929-32.929c3.905-3.905,3.905-10.237,0-14.143c-3.906-3.905-10.236-3.905-14.143,0L93,404.857
			l-32.929-32.929c-3.906-3.905-10.236-3.905-14.143,0c-3.905,3.905-3.905,10.237,0,14.143L78.857,419l-32.929,32.929
			c-3.905,3.905-3.905,10.237,0,14.143C47.882,468.024,50.44,469,53,469s5.118-0.976,7.071-2.929L93,433.143l32.929,32.929
			C127.882,468.024,130.44,469,133,469s5.118-0.976,7.071-2.929c3.905-3.905,3.905-10.237,0-14.143L107.143,419z"/>
	</g>
</g>
<g>
	<g>
		<path d="M482,0H339H173H30C13.458,0,0,13.458,0,30v143v166v143c0,16.542,13.458,30,30,30h143h166h143c16.542,0,30-13.458,30-30
			V339V173V30C512,13.458,498.542,0,482,0z M163,329h-30c-5.522,0-10,4.477-10,10s4.478,10,10,10h30v143H30c-5.514,0-10-4.486-10-10
			V349h33c5.522,0,10-4.477,10-10s-4.478-10-10-10H20V183h143V329z M163,163H20V30c0-5.514,4.486-10,10-10h133V163z M329,492H183
			V349h146V492z M329,329H183V183h146V329z M329,163H183V20h146V163z M492,482c0,5.514-4.486,10-10,10H349V349h143V482z M492,329
			H349V183h30h113V329z M492,163H379h-30V20h133c5.514,0,10,4.486,10,10V163z"/>
	</g>
</g>
<g>
</g>
<g>
</g>
<g>
</g>
<g>
</g>
<g>
</g>
<g>
</g>
<g>
</g>
<g>
</g>
<g>
</g>
<g>
</g>
<g>
</g>
<g>
</g>
<g>
</g>
<g>
</g>
<g>
</g>
</svg>
